<svg width="5" height="5" viewBox="0 0 5 5" fill="none" xmlns="http://www.w3.org/2000/svg">
<path d="M0.348633 1.23633C0.348633 0.929688 0.425781 0.668945 0.580078 0.454102C0.734375 0.239258 0.958008 0.131836 1.25098 0.131836C1.52051 0.131836 1.74316 0.228516 1.91895 0.421875C2.09668 0.613281 2.18555 0.895508 2.18555 1.26855C2.18555 1.63184 2.0957 1.91211 1.91602 2.10938C1.73828 2.30469 1.51855 2.40234 1.25684 2.40234C0.99707 2.40234 0.780273 2.30566 0.606445 2.1123C0.43457 1.91895 0.348633 1.62695 0.348633 1.23633ZM1.26562 0.495117C1.13477 0.495117 1.02539 0.551758 0.9375 0.665039C0.851562 0.77832 0.808594 0.986328 0.808594 1.28906C0.808594 1.56445 0.852539 1.75879 0.94043 1.87207C1.02832 1.9834 1.13672 2.03906 1.26562 2.03906C1.39844 2.03906 1.50781 1.98242 1.59375 1.86914C1.68164 1.75586 1.72559 1.54883 1.72559 1.24805C1.72559 0.970703 1.68164 0.776367 1.59375 0.665039C1.50586 0.551758 1.39648 0.495117 1.26562 0.495117ZM1.26855 4.6582L3.61816 0.131836H4.0459L1.70508 4.6582H1.26855ZM3.12598 3.49219C3.12598 3.18359 3.20312 2.92285 3.35742 2.70996C3.51172 2.49512 3.73633 2.3877 4.03125 2.3877C4.30078 2.3877 4.52344 2.48438 4.69922 2.67773C4.87695 2.86914 4.96582 3.15137 4.96582 3.52441C4.96582 3.8877 4.87598 4.16797 4.69629 4.36523C4.51855 4.56055 4.29785 4.6582 4.03418 4.6582C3.77441 4.6582 3.55762 4.56152 3.38379 4.36816C3.21191 4.17285 3.12598 3.88086 3.12598 3.49219ZM4.0459 2.75098C3.91309 2.75098 3.80273 2.80762 3.71484 2.9209C3.62891 3.03418 3.58594 3.24219 3.58594 3.54492C3.58594 3.81836 3.62988 4.01172 3.71777 4.125C3.80566 4.23828 3.91406 4.29492 4.04297 4.29492C4.17773 4.29492 4.28809 4.23828 4.37402 4.125C4.46191 4.01172 4.50586 3.80469 4.50586 3.50391C4.50586 3.22656 4.46191 3.03223 4.37402 2.9209C4.28613 2.80762 4.17676 2.75098 4.0459 2.75098Z" fill="black"/>
</svg>
