<svg width="8" height="7" viewBox="0 0 8 7" fill="none" xmlns="http://www.w3.org/2000/svg">
<path d="M0.47168 5.5V1.20508H2.37598C2.75879 1.20508 3.0498 1.24414 3.24902 1.32227C3.44824 1.39844 3.60742 1.53418 3.72656 1.72949C3.8457 1.9248 3.90527 2.14062 3.90527 2.37695C3.90527 2.68164 3.80664 2.93848 3.60938 3.14746C3.41211 3.35645 3.10742 3.48926 2.69531 3.5459C2.8457 3.61816 2.95996 3.68945 3.03809 3.75977C3.2041 3.91211 3.36133 4.10254 3.50977 4.33105L4.25684 5.5H3.54199L2.97363 4.60645C2.80762 4.34863 2.6709 4.15137 2.56348 4.01465C2.45605 3.87793 2.35938 3.78223 2.27344 3.72754C2.18945 3.67285 2.10352 3.63477 2.01562 3.61328C1.95117 3.59961 1.8457 3.59277 1.69922 3.59277H1.04004V5.5H0.47168ZM1.04004 3.10059H2.26172C2.52148 3.10059 2.72461 3.07422 2.87109 3.02148C3.01758 2.9668 3.12891 2.88086 3.20508 2.76367C3.28125 2.64453 3.31934 2.51562 3.31934 2.37695C3.31934 2.17383 3.24512 2.00684 3.09668 1.87598C2.9502 1.74512 2.71777 1.67969 2.39941 1.67969H1.04004V3.10059ZM5.83008 6.11816V5.59082C5.56641 5.55762 5.35156 5.49902 5.18555 5.41504C5.02148 5.3291 4.87891 5.19141 4.75781 5.00195C4.63867 4.8125 4.56934 4.58105 4.5498 4.30762L5.08008 4.20801C5.12109 4.49121 5.19336 4.69922 5.29688 4.83203C5.44531 5.01953 5.62305 5.12402 5.83008 5.14551V3.4668C5.61328 3.42578 5.3916 3.3418 5.16504 3.21484C4.99707 3.12109 4.86719 2.99121 4.77539 2.8252C4.68555 2.65918 4.64062 2.4707 4.64062 2.25977C4.64062 1.88477 4.77344 1.58105 5.03906 1.34863C5.2168 1.19238 5.48047 1.09668 5.83008 1.06152V0.80957H6.14062V1.06152C6.44727 1.09082 6.69043 1.18066 6.87012 1.33105C7.10059 1.52246 7.23926 1.78516 7.28613 2.11914L6.74121 2.20117C6.70996 1.99414 6.64453 1.83594 6.54492 1.72656C6.44727 1.61523 6.3125 1.54199 6.14062 1.50684V3.02734C6.40625 3.09375 6.58203 3.14551 6.66797 3.18262C6.83203 3.25488 6.96582 3.34277 7.06934 3.44629C7.17285 3.5498 7.25195 3.67285 7.30664 3.81543C7.36328 3.95801 7.3916 4.1123 7.3916 4.27832C7.3916 4.64355 7.27539 4.94824 7.04297 5.19238C6.81055 5.43652 6.50977 5.56738 6.14062 5.58496V6.11816H5.83008ZM5.83008 1.50098C5.625 1.53223 5.46289 1.61426 5.34375 1.74707C5.22656 1.87988 5.16797 2.03711 5.16797 2.21875C5.16797 2.39844 5.21777 2.54883 5.31738 2.66992C5.41895 2.79102 5.58984 2.8877 5.83008 2.95996V1.50098ZM6.14062 5.14551C6.3457 5.12012 6.51465 5.03125 6.64746 4.87891C6.78223 4.72656 6.84961 4.53809 6.84961 4.31348C6.84961 4.12207 6.80176 3.96875 6.70605 3.85352C6.6123 3.73633 6.42383 3.63184 6.14062 3.54004V5.14551Z" fill="black"/>
</svg>
